<?xml version="1.0" encoding="UTF-8" standalone="no"?>
<!-- Created with Inkscape (http://www.inkscape.org/) -->

<svg
   version="1.1"
   id="svg840"
   xml:space="preserve"
   width="2560"
   height="1440"
   viewBox="0 0 2560 1440"
   sodipodi:docname="rect3.svg"
   inkscape:version="1.1.2 (0a00cf5339, 2022-02-04)"
   xmlns:inkscape="http://www.inkscape.org/namespaces/inkscape"
   xmlns:sodipodi="http://sodipodi.sourceforge.net/DTD/sodipodi-0.dtd"
   xmlns="http://www.w3.org/2000/svg"
   xmlns:svg="http://www.w3.org/2000/svg"><sodipodi:namedview
     id="namedview1083"
     pagecolor="#ffffff"
     bordercolor="#666666"
     borderopacity="1.0"
     inkscape:pageshadow="2"
     inkscape:pageopacity="0.0"
     inkscape:pagecheckerboard="0"
     showgrid="false"
     inkscape:zoom="0.43984375"
     inkscape:cx="938.9698"
     inkscape:cy="719.57371"
     inkscape:window-width="1920"
     inkscape:window-height="1136"
     inkscape:window-x="0"
     inkscape:window-y="27"
     inkscape:window-maximized="1"
     inkscape:current-layer="svg840" /><defs
     id="defs844"><clipPath
       clipPathUnits="userSpaceOnUse"
       id="clipPath856"><path
         d="M 0,0 H 1920 V 1080 H 0 Z"
         id="path854" /></clipPath><clipPath
       clipPathUnits="userSpaceOnUse"
       id="clipPath904"><path
         d="M 0,1080 H 1920 V 0 H 0 Z"
         id="path902" /></clipPath><clipPath
       clipPathUnits="userSpaceOnUse"
       id="clipPath2050"><path
         d="M 0,1080 H 1920 V 0 H 0 Z"
         id="path2048" /></clipPath><clipPath
       clipPathUnits="userSpaceOnUse"
       id="clipPath2074"><path
         d="M 0,1080 H 1920 V 0 H 0 Z"
         id="path2072" /></clipPath><clipPath
       clipPathUnits="userSpaceOnUse"
       id="clipPath2250"><path
         d="M 0,1080 H 1920 V 0 H 0 Z"
         id="path2248" /></clipPath></defs><g
     id="g846"
     transform="matrix(1.3333333,0,0,-1.3333333,0,1440)"
     style="stroke:none"><g
       id="g850"
       style="stroke:none"><g
         id="g852"
         clip-path="url(#clipPath856)"
         style="stroke:none"><g
           id="g858"
           transform="translate(2035.5,1080)"
           style="stroke:none" /><g
           id="g862"
           transform="translate(1969.3334,-70.2837)"
           style="stroke:none"><path
             d="M 0,0 V -241.433 C 0,-349.935 -88.775,-438.71 -197.278,-438.716 h -736.111 c -108.503,0.006 -197.278,88.781 -197.278,197.283 V 0 c 0,108.503 88.775,197.278 197.278,197.284 h 736.111 c 54.254,0 103.568,-22.196 139.325,-57.953 C -22.195,103.574 0,54.254 0,0"
             style="fill:#edb94c;fill-opacity:1;fill-rule:nonzero;stroke:none"
             id="path864" /></g></g></g><rect
       style="fill:none;stroke:none;stroke-width:0.850395;stroke-linecap:round;paint-order:markers fill stroke;stop-color:#000000"
       id="rect3534"
       width="1931.3221"
       height="1095.9359"
       x="0"
       y="-1080"
       transform="scale(1,-1)" /></g></svg>
