<?xml version="1.0" encoding="UTF-8" standalone="no"?>
<!-- Created with Inkscape (http://www.inkscape.org/) -->

<svg
   version="1.1"
   id="svg840"
   xml:space="preserve"
   width="2560"
   height="1440"
   viewBox="0 0 2560 1440"
   sodipodi:docname="rect2.svg"
   inkscape:version="1.1.2 (0a00cf5339, 2022-02-04)"
   xmlns:inkscape="http://www.inkscape.org/namespaces/inkscape"
   xmlns:sodipodi="http://sodipodi.sourceforge.net/DTD/sodipodi-0.dtd"
   xmlns="http://www.w3.org/2000/svg"
   xmlns:svg="http://www.w3.org/2000/svg"><sodipodi:namedview
     id="namedview25"
     pagecolor="#ffffff"
     bordercolor="#666666"
     borderopacity="1.0"
     inkscape:pageshadow="2"
     inkscape:pageopacity="0.0"
     inkscape:pagecheckerboard="0"
     showgrid="false"
     inkscape:zoom="0.51640625"
     inkscape:cx="319.51589"
     inkscape:cy="998.24508"
     inkscape:window-width="1920"
     inkscape:window-height="1136"
     inkscape:window-x="0"
     inkscape:window-y="27"
     inkscape:window-maximized="1"
     inkscape:current-layer="g846" /><defs
     id="defs844"><clipPath
       clipPathUnits="userSpaceOnUse"
       id="clipPath856"><path
         d="M 0,0 H 1920 V 1080 H 0 Z"
         id="path854" /></clipPath><clipPath
       clipPathUnits="userSpaceOnUse"
       id="clipPath904"><path
         d="M 0,1080 H 1920 V 0 H 0 Z"
         id="path902" /></clipPath><clipPath
       clipPathUnits="userSpaceOnUse"
       id="clipPath2050"><path
         d="M 0,1080 H 1920 V 0 H 0 Z"
         id="path2048" /></clipPath><clipPath
       clipPathUnits="userSpaceOnUse"
       id="clipPath2074"><path
         d="M 0,1080 H 1920 V 0 H 0 Z"
         id="path2072" /></clipPath><clipPath
       clipPathUnits="userSpaceOnUse"
       id="clipPath2250"><path
         d="M 0,1080 H 1920 V 0 H 0 Z"
         id="path2248" /></clipPath></defs><g
     id="g846"
     transform="matrix(1.3333333,0,0,-1.3333333,0,1440)"
     style="stroke:none"><g
       id="g850"
       style="stroke:none"
       transform="translate(-3,-3)"><g
         id="g852"
         clip-path="url(#clipPath856)"
         style="stroke:none"><g
           id="g858"
           transform="translate(2035.5,1080)"
           style="stroke:none" /><g
           id="g878"
           transform="translate(369.2871,-43.498)"
           style="stroke:none"><path
             d="m 0,0 v 0 c 0,-69.576 -56.926,-126.502 -126.502,-126.502 h -1361.711 c -69.576,0 -126.502,56.926 -126.502,126.502 v 0 c 0,69.576 56.926,126.502 126.502,126.502 H -126.502 C -56.926,126.502 0,69.576 0,0"
             style="fill:#6578b6;fill-opacity:1;fill-rule:nonzero;stroke:none"
             id="path880" /></g><g
           id="g882"
           transform="translate(369.2871,192.5)"
           style="stroke:none"><path
             d="m 0,0 v 0 c 0,-69.576 -56.926,-126.502 -126.502,-126.502 h -1361.711 c -69.576,0 -126.502,56.926 -126.502,126.502 v 0 c 0,69.576 56.926,126.502 126.502,126.502 H -126.502 C -56.926,126.502 0,69.576 0,0"
             style="fill:#6578b6;fill-opacity:1;fill-rule:nonzero;stroke:none"
             id="path884" /></g><g
           id="g886"
           transform="translate(369.2871,428.498)"
           style="stroke:none"><path
             d="m 0,0 v 0 c 0,-69.576 -56.926,-126.502 -126.502,-126.502 h -1361.711 c -69.576,0 -126.502,56.926 -126.502,126.502 v 0 c 0,69.576 56.926,126.502 126.502,126.502 H -126.502 C -56.926,126.502 0,69.576 0,0"
             style="fill:#6578b6;fill-opacity:1;fill-rule:nonzero;stroke:none"
             id="path888" /></g></g></g><rect
       style="fill:none;stroke:none;stroke-width:0.850395;stroke-linecap:round;paint-order:markers fill stroke;stop-color:#000000"
       id="rect3534"
       width="1931.3221"
       height="1095.9359"
       x="0"
       y="-1080"
       transform="scale(1,-1)" /></g></svg>
